<mxfile host="app.diagrams.net" modified="2021-03-23T15:20:03.759Z" agent="5.0 (Windows NT 10.0; Win64; x64) AppleWebKit/537.36 (KHTML, like Gecko) Chrome/89.0.4389.90 Safari/537.36" etag="OtqFywfrcGFpH-gpH3xk" version="14.5.0" type="github" pages="4">
  <diagram id="QcT4WYxxXB78vr11Nmpd" name="Page-1">
    <mxGraphModel dx="460" dy="695" grid="1" gridSize="10" guides="1" tooltips="1" connect="1" arrows="1" fold="1" page="1" pageScale="1" pageWidth="850" pageHeight="1100" math="0" shadow="0">
      <root>
        <mxCell id="0" />
        <mxCell id="1" parent="0" />
        <mxCell id="riQT43mBiRyMyCIj4UrK-2" value="" style="html=1;verticalLabelPosition=bottom;labelBackgroundColor=#ffffff;verticalAlign=top;outlineConnect=0;shadow=0;dashed=0;shape=mxgraph.rackGeneral.container;fillColor2=#f4f4f4;container=1;collapsible=0;childLayout=rack;allowGaps=1;marginLeft=33;marginRight=9;marginTop=21;marginBottom=22;textColor=#666666;numDisp=ascend;" parent="1" vertex="1">
          <mxGeometry x="320" y="110" width="210" height="850" as="geometry" />
        </mxCell>
        <mxCell id="riQT43mBiRyMyCIj4UrK-3" value="" style="html=1;labelPosition=right;align=left;spacingLeft=15;shadow=0;dashed=0;outlineConnect=0;shape=mxgraph.rackGeneral.plate;fillColor=#eeeeee;strokeColor=#36393d;" parent="riQT43mBiRyMyCIj4UrK-2" vertex="1">
          <mxGeometry x="33" y="41" width="168" height="20" as="geometry" />
        </mxCell>
        <mxCell id="riQT43mBiRyMyCIj4UrK-27" value="" style="html=1;labelPosition=right;align=left;spacingLeft=15;shadow=0;dashed=0;outlineConnect=0;shape=mxgraph.rackGeneral.plate;fillColor=#eeeeee;strokeColor=#36393d;" parent="riQT43mBiRyMyCIj4UrK-2" vertex="1">
          <mxGeometry x="33" y="21" width="168" height="20" as="geometry" />
        </mxCell>
        <mxCell id="riQT43mBiRyMyCIj4UrK-4" value="" style="strokeColor=#d6b656;html=1;labelPosition=right;align=left;spacingLeft=15;shadow=0;dashed=0;outlineConnect=0;shape=mxgraph.rack.general.1u_rack_server;fillColor=#fff2cc;" parent="riQT43mBiRyMyCIj4UrK-2" vertex="1">
          <mxGeometry x="33" y="61" width="168" height="20" as="geometry" />
        </mxCell>
        <mxCell id="riQT43mBiRyMyCIj4UrK-5" value="" style="strokeColor=#d6b656;html=1;labelPosition=right;align=left;spacingLeft=15;shadow=0;dashed=0;outlineConnect=0;shape=mxgraph.rack.general.1u_rack_server;fillColor=#fff2cc;" parent="riQT43mBiRyMyCIj4UrK-2" vertex="1">
          <mxGeometry x="33" y="81" width="168" height="20" as="geometry" />
        </mxCell>
        <mxCell id="riQT43mBiRyMyCIj4UrK-6" value="" style="strokeColor=#d6b656;html=1;labelPosition=right;align=left;spacingLeft=15;shadow=0;dashed=0;outlineConnect=0;shape=mxgraph.rack.general.1u_rack_server;fillColor=#fff2cc;" parent="riQT43mBiRyMyCIj4UrK-2" vertex="1">
          <mxGeometry x="33" y="101" width="168" height="20" as="geometry" />
        </mxCell>
        <mxCell id="riQT43mBiRyMyCIj4UrK-7" value="" style="strokeColor=#666666;html=1;labelPosition=right;align=left;spacingLeft=15;shadow=0;dashed=0;outlineConnect=0;shape=mxgraph.rackGeneral.plate;fillColor=#e8e8e8;" parent="riQT43mBiRyMyCIj4UrK-2" vertex="1">
          <mxGeometry x="33" y="121" width="168" height="20" as="geometry" />
        </mxCell>
        <mxCell id="riQT43mBiRyMyCIj4UrK-8" value="" style="strokeColor=#666666;html=1;labelPosition=right;align=left;spacingLeft=15;shadow=0;dashed=0;outlineConnect=0;shape=mxgraph.rackGeneral.plate;fillColor=#e8e8e8;" parent="riQT43mBiRyMyCIj4UrK-2" vertex="1">
          <mxGeometry x="33" y="141" width="168" height="60" as="geometry" />
        </mxCell>
        <mxCell id="riQT43mBiRyMyCIj4UrK-10" value="" style="strokeColor=#82b366;html=1;labelPosition=right;align=left;spacingLeft=15;shadow=0;dashed=0;outlineConnect=0;shape=mxgraph.rack.general.1u_rack_server;fillColor=#d5e8d4;" parent="riQT43mBiRyMyCIj4UrK-2" vertex="1">
          <mxGeometry x="33" y="241" width="168" height="20" as="geometry" />
        </mxCell>
        <mxCell id="riQT43mBiRyMyCIj4UrK-9" value="" style="strokeColor=#82b366;html=1;labelPosition=right;align=left;spacingLeft=15;shadow=0;dashed=0;outlineConnect=0;shape=mxgraph.rack.general.1u_rack_server;fillColor=#d5e8d4;" parent="riQT43mBiRyMyCIj4UrK-2" vertex="1">
          <mxGeometry x="33" y="261" width="168" height="20" as="geometry" />
        </mxCell>
        <mxCell id="riQT43mBiRyMyCIj4UrK-15" value="" style="strokeColor=#82b366;html=1;labelPosition=right;align=left;spacingLeft=15;shadow=0;dashed=0;outlineConnect=0;shape=mxgraph.rack.dell.poweredge_r940;fillColor=#d5e8d4;" parent="riQT43mBiRyMyCIj4UrK-2" vertex="1">
          <mxGeometry x="33" y="281" width="168" height="60" as="geometry" />
        </mxCell>
        <mxCell id="riQT43mBiRyMyCIj4UrK-16" value="" style="strokeColor=#82b366;html=1;labelPosition=right;align=left;spacingLeft=15;shadow=0;dashed=0;outlineConnect=0;shape=mxgraph.rack.dell.poweredge_r940;fillColor=#d5e8d4;" parent="riQT43mBiRyMyCIj4UrK-2" vertex="1">
          <mxGeometry x="33" y="341" width="168" height="60" as="geometry" />
        </mxCell>
        <mxCell id="riQT43mBiRyMyCIj4UrK-13" value="" style="strokeColor=#b85450;html=1;labelPosition=right;align=left;spacingLeft=15;shadow=0;dashed=0;outlineConnect=0;shape=mxgraph.rackGeneral.shelf;container=1;collapsible=0;fillColor=#f8cecc;" parent="riQT43mBiRyMyCIj4UrK-2" vertex="1">
          <mxGeometry x="33" y="421" width="168" height="20" as="geometry" />
        </mxCell>
        <mxCell id="riQT43mBiRyMyCIj4UrK-19" value="" style="strokeColor=#9673a6;html=1;labelPosition=right;align=left;spacingLeft=15;shadow=0;dashed=0;outlineConnect=0;shape=mxgraph.rack.general.1u_rack_server;fillColor=#e1d5e7;" parent="riQT43mBiRyMyCIj4UrK-2" vertex="1">
          <mxGeometry x="33" y="441" width="168" height="20" as="geometry" />
        </mxCell>
        <mxCell id="riQT43mBiRyMyCIj4UrK-18" value="" style="strokeColor=#6c8ebf;html=1;labelPosition=right;align=left;spacingLeft=15;shadow=0;dashed=0;outlineConnect=0;shape=mxgraph.rack.general.1u_rack_server;fillColor=#dae8fc;" parent="riQT43mBiRyMyCIj4UrK-2" vertex="1">
          <mxGeometry x="33" y="481" width="168" height="20" as="geometry" />
        </mxCell>
        <mxCell id="riQT43mBiRyMyCIj4UrK-20" value="" style="strokeColor=#6c8ebf;html=1;labelPosition=right;align=left;spacingLeft=15;shadow=0;dashed=0;outlineConnect=0;shape=mxgraph.rack.general.1u_rack_server;fillColor=#dae8fc;" parent="riQT43mBiRyMyCIj4UrK-2" vertex="1">
          <mxGeometry x="33" y="501" width="168" height="20" as="geometry" />
        </mxCell>
        <mxCell id="riQT43mBiRyMyCIj4UrK-22" value="" style="strokeColor=#6c8ebf;html=1;labelPosition=right;align=left;spacingLeft=15;shadow=0;dashed=0;outlineConnect=0;shape=mxgraph.rack.dell.poweredge_r940;fillColor=#dae8fc;" parent="riQT43mBiRyMyCIj4UrK-2" vertex="1">
          <mxGeometry x="33" y="521" width="168" height="60" as="geometry" />
        </mxCell>
        <mxCell id="riQT43mBiRyMyCIj4UrK-21" value="" style="strokeColor=#6c8ebf;html=1;labelPosition=right;align=left;spacingLeft=15;shadow=0;dashed=0;outlineConnect=0;shape=mxgraph.rack.dell.poweredge_r940;fillColor=#dae8fc;" parent="riQT43mBiRyMyCIj4UrK-2" vertex="1">
          <mxGeometry x="33" y="581" width="168" height="60" as="geometry" />
        </mxCell>
        <mxCell id="riQT43mBiRyMyCIj4UrK-23" value="" style="strokeColor=#23445d;html=1;labelPosition=right;align=left;spacingLeft=15;shadow=0;dashed=0;outlineConnect=0;shape=mxgraph.rack.general.1u_rack_server;fillColor=#bac8d3;" parent="riQT43mBiRyMyCIj4UrK-2" vertex="1">
          <mxGeometry x="33" y="641" width="168" height="20" as="geometry" />
        </mxCell>
        <mxCell id="riQT43mBiRyMyCIj4UrK-24" value="" style="strokeColor=#23445d;html=1;labelPosition=right;align=left;spacingLeft=15;shadow=0;dashed=0;outlineConnect=0;shape=mxgraph.rack.general.1u_rack_server;fillColor=#bac8d3;" parent="riQT43mBiRyMyCIj4UrK-2" vertex="1">
          <mxGeometry x="33" y="661" width="168" height="20" as="geometry" />
        </mxCell>
        <mxCell id="riQT43mBiRyMyCIj4UrK-25" value="" style="strokeColor=#23445d;html=1;labelPosition=right;align=left;spacingLeft=15;shadow=0;dashed=0;outlineConnect=0;shape=mxgraph.rack.dell.poweredge_r940;fillColor=#bac8d3;" parent="riQT43mBiRyMyCIj4UrK-2" vertex="1">
          <mxGeometry x="33" y="681" width="168" height="60" as="geometry" />
        </mxCell>
        <mxCell id="riQT43mBiRyMyCIj4UrK-26" value="" style="strokeColor=#23445d;html=1;labelPosition=right;align=left;spacingLeft=15;shadow=0;dashed=0;outlineConnect=0;shape=mxgraph.rack.dell.poweredge_r940;fillColor=#bac8d3;" parent="riQT43mBiRyMyCIj4UrK-2" vertex="1">
          <mxGeometry x="33" y="741" width="168" height="60" as="geometry" />
        </mxCell>
        <mxCell id="riQT43mBiRyMyCIj4UrK-28" value="&lt;h1&gt;30202&lt;/h1&gt;&lt;p&gt;&lt;br&gt;&lt;/p&gt;" style="text;html=1;strokeColor=none;fillColor=none;spacing=5;spacingTop=-20;whiteSpace=wrap;overflow=hidden;rounded=0;align=center;" parent="1" vertex="1">
          <mxGeometry x="340" y="50" width="190" height="40" as="geometry" />
        </mxCell>
        <mxCell id="riQT43mBiRyMyCIj4UrK-30" value="North Fork Valley - Primary" style="text;html=1;strokeColor=#d6b656;fillColor=#fff2cc;align=center;verticalAlign=middle;whiteSpace=wrap;rounded=0;" parent="1" vertex="1">
          <mxGeometry x="530" y="180" width="230" height="14" as="geometry" />
        </mxCell>
        <mxCell id="riQT43mBiRyMyCIj4UrK-40" value="University Health Pharmacy - Primary" style="text;html=1;strokeColor=#82b366;fillColor=#d5e8d4;align=center;verticalAlign=middle;whiteSpace=wrap;rounded=0;" parent="1" vertex="1">
          <mxGeometry x="530" y="350" width="230" height="20" as="geometry" />
        </mxCell>
        <mxCell id="riQT43mBiRyMyCIj4UrK-41" value="UK Owned KVM" style="text;html=1;strokeColor=#b85450;fillColor=#f8cecc;align=center;verticalAlign=middle;whiteSpace=wrap;rounded=0;" parent="1" vertex="1">
          <mxGeometry x="530" y="530" width="230" height="20" as="geometry" />
        </mxCell>
        <mxCell id="riQT43mBiRyMyCIj4UrK-42" value="SPC Enterprise - Primary" style="text;html=1;strokeColor=#9673a6;fillColor=#e1d5e7;align=center;verticalAlign=middle;whiteSpace=wrap;rounded=0;" parent="1" vertex="1">
          <mxGeometry x="530" y="551" width="230" height="20" as="geometry" />
        </mxCell>
        <mxCell id="riQT43mBiRyMyCIj4UrK-58" style="edgeStyle=orthogonalEdgeStyle;rounded=0;orthogonalLoop=1;jettySize=auto;html=1;" parent="1" source="riQT43mBiRyMyCIj4UrK-17" target="riQT43mBiRyMyCIj4UrK-18" edge="1">
          <mxGeometry relative="1" as="geometry">
            <Array as="points" />
          </mxGeometry>
        </mxCell>
        <mxCell id="riQT43mBiRyMyCIj4UrK-43" value="Good Samaritan - Primary" style="text;html=1;strokeColor=#6c8ebf;fillColor=#dae8fc;align=center;verticalAlign=middle;whiteSpace=wrap;rounded=0;" parent="1" vertex="1">
          <mxGeometry x="530" y="591" width="230" height="19" as="geometry" />
        </mxCell>
        <mxCell id="riQT43mBiRyMyCIj4UrK-44" value="Chandler Retail Pharmacy - Primary" style="text;html=1;strokeColor=#23445d;fillColor=#bac8d3;align=center;verticalAlign=middle;whiteSpace=wrap;rounded=0;" parent="1" vertex="1">
          <mxGeometry x="530" y="750" width="230" height="20" as="geometry" />
        </mxCell>
        <mxCell id="vxw6uvR7-xGOI6cU_YcJ-2" value="North Fork Valley - Secondary" style="text;html=1;strokeColor=#d6b656;fillColor=#fff2cc;align=center;verticalAlign=middle;whiteSpace=wrap;rounded=0;" vertex="1" parent="1">
          <mxGeometry x="530" y="196" width="230" height="14" as="geometry" />
        </mxCell>
        <mxCell id="vxw6uvR7-xGOI6cU_YcJ-5" value="North Fork Valley - IVR" style="text;html=1;strokeColor=#d6b656;fillColor=#fff2cc;align=center;verticalAlign=middle;whiteSpace=wrap;rounded=0;" vertex="1" parent="1">
          <mxGeometry x="530" y="210" width="230" height="14" as="geometry" />
        </mxCell>
        <mxCell id="riQT43mBiRyMyCIj4UrK-39" value="Specialty Servers&lt;br&gt;Removed" style="text;html=1;strokeColor=#666666;fillColor=#f5f5f5;align=center;verticalAlign=middle;whiteSpace=wrap;rounded=0;fontColor=#333333;" parent="1" vertex="1">
          <mxGeometry x="530" y="240" width="230" height="60" as="geometry" />
        </mxCell>
        <mxCell id="riQT43mBiRyMyCIj4UrK-17" value="" style="strokeColor=#9673a6;html=1;labelPosition=right;align=left;spacingLeft=15;shadow=0;dashed=0;outlineConnect=0;shape=mxgraph.rack.general.1u_rack_server;fillColor=#e1d5e7;" parent="1" vertex="1">
          <mxGeometry x="353" y="571" width="168" height="20" as="geometry" />
        </mxCell>
        <mxCell id="vxw6uvR7-xGOI6cU_YcJ-9" value="University Health Pharmacy - Primary" style="text;html=1;strokeColor=#82b366;fillColor=#d5e8d4;align=center;verticalAlign=middle;whiteSpace=wrap;rounded=0;" vertex="1" parent="1">
          <mxGeometry x="530" y="370" width="230" height="20" as="geometry" />
        </mxCell>
        <mxCell id="vxw6uvR7-xGOI6cU_YcJ-11" value="University Health Pharmacy - RAS" style="text;html=1;strokeColor=#82b366;fillColor=#d5e8d4;align=center;verticalAlign=middle;whiteSpace=wrap;rounded=0;" vertex="1" parent="1">
          <mxGeometry x="530" y="400" width="230" height="50" as="geometry" />
        </mxCell>
        <mxCell id="vxw6uvR7-xGOI6cU_YcJ-13" value="University Health Pharmacy - Secondary" style="text;html=1;strokeColor=#82b366;fillColor=#d5e8d4;align=center;verticalAlign=middle;whiteSpace=wrap;rounded=0;" vertex="1" parent="1">
          <mxGeometry x="530" y="370" width="230" height="20" as="geometry" />
        </mxCell>
        <mxCell id="vxw6uvR7-xGOI6cU_YcJ-17" value="University Health Pharmacy - IVR" style="text;html=1;strokeColor=#82b366;fillColor=#d5e8d4;align=center;verticalAlign=middle;whiteSpace=wrap;rounded=0;" vertex="1" parent="1">
          <mxGeometry x="530" y="450" width="230" height="50" as="geometry" />
        </mxCell>
        <mxCell id="vxw6uvR7-xGOI6cU_YcJ-19" value="SPC Enterprise - Secondary" style="text;html=1;strokeColor=#9673a6;fillColor=#e1d5e7;align=center;verticalAlign=middle;whiteSpace=wrap;rounded=0;" vertex="1" parent="1">
          <mxGeometry x="530" y="571" width="230" height="20" as="geometry" />
        </mxCell>
        <mxCell id="vxw6uvR7-xGOI6cU_YcJ-21" value="Good Samaritan - Secondary" style="text;html=1;strokeColor=#6c8ebf;fillColor=#dae8fc;align=center;verticalAlign=middle;whiteSpace=wrap;rounded=0;" vertex="1" parent="1">
          <mxGeometry x="530" y="610" width="230" height="19" as="geometry" />
        </mxCell>
        <mxCell id="vxw6uvR7-xGOI6cU_YcJ-23" value="Good Samaritan - RAS" style="text;html=1;strokeColor=#6c8ebf;fillColor=#dae8fc;align=center;verticalAlign=middle;whiteSpace=wrap;rounded=0;" vertex="1" parent="1">
          <mxGeometry x="530" y="640" width="230" height="50" as="geometry" />
        </mxCell>
        <mxCell id="vxw6uvR7-xGOI6cU_YcJ-25" value="Good Samaritan - IVR" style="text;html=1;strokeColor=#6c8ebf;fillColor=#dae8fc;align=center;verticalAlign=middle;whiteSpace=wrap;rounded=0;" vertex="1" parent="1">
          <mxGeometry x="530" y="690" width="230" height="50" as="geometry" />
        </mxCell>
        <mxCell id="vxw6uvR7-xGOI6cU_YcJ-27" value="Chandler Retail Pharmacy - Secondary" style="text;html=1;strokeColor=#23445d;fillColor=#bac8d3;align=center;verticalAlign=middle;whiteSpace=wrap;rounded=0;" vertex="1" parent="1">
          <mxGeometry x="530" y="770" width="230" height="20" as="geometry" />
        </mxCell>
        <mxCell id="vxw6uvR7-xGOI6cU_YcJ-29" value="Chandler Retail Pharmacy - RAS" style="text;html=1;strokeColor=#23445d;fillColor=#bac8d3;align=center;verticalAlign=middle;whiteSpace=wrap;rounded=0;" vertex="1" parent="1">
          <mxGeometry x="530" y="800" width="230" height="50" as="geometry" />
        </mxCell>
        <mxCell id="vxw6uvR7-xGOI6cU_YcJ-31" value="Chandler Retail Pharmacy - IVR" style="text;html=1;strokeColor=#23445d;fillColor=#bac8d3;align=center;verticalAlign=middle;whiteSpace=wrap;rounded=0;" vertex="1" parent="1">
          <mxGeometry x="530" y="850" width="230" height="50" as="geometry" />
        </mxCell>
      </root>
    </mxGraphModel>
  </diagram>
  <diagram id="xYkLo5KB-uvO5oBvIuHY" name="Page-2">
    <mxGraphModel dx="460" dy="695" grid="1" gridSize="10" guides="1" tooltips="1" connect="1" arrows="1" fold="1" page="1" pageScale="1" pageWidth="850" pageHeight="1100" math="0" shadow="0">
      <root>
        <mxCell id="zFgZ9hsOf5gYY-8B4Prh-0" />
        <mxCell id="zFgZ9hsOf5gYY-8B4Prh-1" parent="zFgZ9hsOf5gYY-8B4Prh-0" />
        <mxCell id="zFgZ9hsOf5gYY-8B4Prh-2" value="" style="strokeColor=#666666;html=1;verticalLabelPosition=bottom;labelBackgroundColor=#ffffff;verticalAlign=top;outlineConnect=0;shadow=0;dashed=0;shape=mxgraph.rackGeneral.container;fillColor2=#f4f4f4;container=1;collapsible=0;childLayout=rack;allowGaps=1;marginLeft=33;marginRight=9;marginTop=21;marginBottom=22;textColor=#666666;numDisp=ascend;" parent="zFgZ9hsOf5gYY-8B4Prh-1" vertex="1">
          <mxGeometry x="320" y="100" width="210" height="670" as="geometry" />
        </mxCell>
        <mxCell id="zFgZ9hsOf5gYY-8B4Prh-22" value="" style="strokeColor=#666666;html=1;labelPosition=right;align=left;spacingLeft=15;shadow=0;dashed=0;outlineConnect=0;shape=mxgraph.rackGeneral.plate;fillColor=#e8e8e8;" parent="zFgZ9hsOf5gYY-8B4Prh-2" vertex="1">
          <mxGeometry x="33" y="21" width="168" height="60" as="geometry" />
        </mxCell>
        <mxCell id="zFgZ9hsOf5gYY-8B4Prh-21" value="" style="strokeColor=#666666;html=1;labelPosition=right;align=left;spacingLeft=15;shadow=0;dashed=0;outlineConnect=0;shape=mxgraph.rackGeneral.plate;fillColor=#e8e8e8;" parent="zFgZ9hsOf5gYY-8B4Prh-2" vertex="1">
          <mxGeometry x="33" y="81" width="168" height="20" as="geometry" />
        </mxCell>
        <mxCell id="zFgZ9hsOf5gYY-8B4Prh-23" value="" style="strokeColor=#666666;html=1;labelPosition=right;align=left;spacingLeft=15;shadow=0;dashed=0;outlineConnect=0;shape=mxgraph.rackGeneral.plate;fillColor=#e8e8e8;" parent="zFgZ9hsOf5gYY-8B4Prh-2" vertex="1">
          <mxGeometry x="33" y="101" width="168" height="20" as="geometry" />
        </mxCell>
        <mxCell id="zFgZ9hsOf5gYY-8B4Prh-20" value="" style="strokeColor=#6c8ebf;html=1;labelPosition=right;align=left;spacingLeft=15;shadow=0;dashed=0;outlineConnect=0;shape=mxgraph.rack.general.1u_rack_server;fillColor=#dae8fc;" parent="zFgZ9hsOf5gYY-8B4Prh-2" vertex="1">
          <mxGeometry x="33" y="141" width="168" height="20" as="geometry" />
        </mxCell>
        <mxCell id="zFgZ9hsOf5gYY-8B4Prh-19" value="" style="strokeColor=#6c8ebf;html=1;labelPosition=right;align=left;spacingLeft=15;shadow=0;dashed=0;outlineConnect=0;shape=mxgraph.rack.general.1u_rack_server;fillColor=#dae8fc;" parent="zFgZ9hsOf5gYY-8B4Prh-2" vertex="1">
          <mxGeometry x="33" y="161" width="168" height="20" as="geometry" />
        </mxCell>
        <mxCell id="zFgZ9hsOf5gYY-8B4Prh-18" value="" style="strokeColor=#6c8ebf;html=1;labelPosition=right;align=left;spacingLeft=15;shadow=0;dashed=0;outlineConnect=0;shape=mxgraph.rack.general.1u_rack_server;fillColor=#dae8fc;" parent="zFgZ9hsOf5gYY-8B4Prh-2" vertex="1">
          <mxGeometry x="33" y="181" width="168" height="20" as="geometry" />
        </mxCell>
        <mxCell id="zFgZ9hsOf5gYY-8B4Prh-17" value="" style="strokeColor=#666666;html=1;labelPosition=right;align=left;spacingLeft=15;shadow=0;dashed=0;outlineConnect=0;shape=mxgraph.rackGeneral.plate;fillColor=#e8e8e8;" parent="zFgZ9hsOf5gYY-8B4Prh-2" vertex="1">
          <mxGeometry x="33" y="201" width="168" height="20" as="geometry" />
        </mxCell>
        <mxCell id="zFgZ9hsOf5gYY-8B4Prh-16" value="" style="strokeColor=#b85450;html=1;labelPosition=right;align=left;spacingLeft=15;shadow=0;dashed=0;outlineConnect=0;shape=mxgraph.rackGeneral.shelf;container=1;collapsible=0;fillColor=#f8cecc;" parent="zFgZ9hsOf5gYY-8B4Prh-2" vertex="1">
          <mxGeometry x="33" y="221" width="168" height="20" as="geometry" />
        </mxCell>
        <mxCell id="zFgZ9hsOf5gYY-8B4Prh-14" value="" style="strokeColor=#666666;html=1;labelPosition=right;align=left;spacingLeft=15;shadow=0;dashed=0;outlineConnect=0;shape=mxgraph.rack.dell.poweredge_c4140;" parent="zFgZ9hsOf5gYY-8B4Prh-2" vertex="1">
          <mxGeometry x="33" y="241" width="168" height="20" as="geometry" />
        </mxCell>
        <mxCell id="zFgZ9hsOf5gYY-8B4Prh-15" value="" style="strokeColor=#666666;html=1;labelPosition=right;align=left;spacingLeft=15;shadow=0;dashed=0;outlineConnect=0;shape=mxgraph.rack.dell.poweredge_c4140;" parent="zFgZ9hsOf5gYY-8B4Prh-2" vertex="1">
          <mxGeometry x="33" y="261" width="168" height="20" as="geometry" />
        </mxCell>
        <mxCell id="zFgZ9hsOf5gYY-8B4Prh-12" value="" style="strokeColor=#d6b656;html=1;labelPosition=right;align=left;spacingLeft=15;shadow=0;dashed=0;outlineConnect=0;shape=mxgraph.rack.general.1u_rack_server;fillColor=#fff2cc;" parent="zFgZ9hsOf5gYY-8B4Prh-2" vertex="1">
          <mxGeometry x="33" y="281" width="168" height="20" as="geometry" />
        </mxCell>
        <mxCell id="zFgZ9hsOf5gYY-8B4Prh-13" value="" style="strokeColor=#d6b656;html=1;labelPosition=right;align=left;spacingLeft=15;shadow=0;dashed=0;outlineConnect=0;shape=mxgraph.rack.general.1u_rack_server;fillColor=#fff2cc;" parent="zFgZ9hsOf5gYY-8B4Prh-2" vertex="1">
          <mxGeometry x="33" y="301" width="168" height="20" as="geometry" />
        </mxCell>
        <mxCell id="zFgZ9hsOf5gYY-8B4Prh-11" value="" style="strokeColor=#666666;html=1;labelPosition=right;align=left;spacingLeft=15;shadow=0;dashed=0;outlineConnect=0;shape=mxgraph.rack.dell.poweredge_c4140;" parent="zFgZ9hsOf5gYY-8B4Prh-2" vertex="1">
          <mxGeometry x="33" y="321" width="168" height="20" as="geometry" />
        </mxCell>
        <mxCell id="zFgZ9hsOf5gYY-8B4Prh-10" value="" style="strokeColor=#9673a6;html=1;labelPosition=right;align=left;spacingLeft=15;shadow=0;dashed=0;outlineConnect=0;shape=mxgraph.rack.general.1u_rack_server;fillColor=#e1d5e7;" parent="zFgZ9hsOf5gYY-8B4Prh-2" vertex="1">
          <mxGeometry x="33" y="341" width="168" height="20" as="geometry" />
        </mxCell>
        <mxCell id="zFgZ9hsOf5gYY-8B4Prh-9" value="" style="strokeColor=#9673a6;html=1;labelPosition=right;align=left;spacingLeft=15;shadow=0;dashed=0;outlineConnect=0;shape=mxgraph.rack.general.1u_rack_server;fillColor=#e1d5e7;" parent="zFgZ9hsOf5gYY-8B4Prh-2" vertex="1">
          <mxGeometry x="33" y="361" width="168" height="20" as="geometry" />
        </mxCell>
        <mxCell id="zFgZ9hsOf5gYY-8B4Prh-8" value="" style="strokeColor=#9673a6;html=1;labelPosition=right;align=left;spacingLeft=15;shadow=0;dashed=0;outlineConnect=0;shape=mxgraph.rack.general.1u_rack_server;fillColor=#e1d5e7;" parent="zFgZ9hsOf5gYY-8B4Prh-2" vertex="1">
          <mxGeometry x="33" y="381" width="168" height="20" as="geometry" />
        </mxCell>
        <mxCell id="zFgZ9hsOf5gYY-8B4Prh-3" value="" style="strokeColor=#9673a6;html=1;labelPosition=right;align=left;spacingLeft=15;shadow=0;dashed=0;outlineConnect=0;shape=mxgraph.rack.dell.poweredge_r940;fillColor=#e1d5e7;" parent="zFgZ9hsOf5gYY-8B4Prh-2" vertex="1">
          <mxGeometry x="33" y="401" width="168" height="60" as="geometry" />
        </mxCell>
        <mxCell id="zFgZ9hsOf5gYY-8B4Prh-6" value="" style="strokeColor=#d79b00;html=1;labelPosition=right;align=left;spacingLeft=15;shadow=0;dashed=0;outlineConnect=0;shape=mxgraph.rack.general.1u_rack_server;fillColor=#ffe6cc;" parent="zFgZ9hsOf5gYY-8B4Prh-2" vertex="1">
          <mxGeometry x="33" y="461" width="168" height="20" as="geometry" />
        </mxCell>
        <mxCell id="zFgZ9hsOf5gYY-8B4Prh-7" value="" style="strokeColor=#d79b00;html=1;labelPosition=right;align=left;spacingLeft=15;shadow=0;dashed=0;outlineConnect=0;shape=mxgraph.rack.general.1u_rack_server;fillColor=#ffe6cc;" parent="zFgZ9hsOf5gYY-8B4Prh-2" vertex="1">
          <mxGeometry x="33" y="481" width="168" height="20" as="geometry" />
        </mxCell>
        <mxCell id="zFgZ9hsOf5gYY-8B4Prh-4" value="" style="strokeColor=#d79b00;html=1;labelPosition=right;align=left;spacingLeft=15;shadow=0;dashed=0;outlineConnect=0;shape=mxgraph.rack.dell.poweredge_r940;fillColor=#ffe6cc;" parent="zFgZ9hsOf5gYY-8B4Prh-2" vertex="1">
          <mxGeometry x="33" y="501" width="168" height="60" as="geometry" />
        </mxCell>
        <mxCell id="zFgZ9hsOf5gYY-8B4Prh-5" value="" style="strokeColor=#d79b00;html=1;labelPosition=right;align=left;spacingLeft=15;shadow=0;dashed=0;outlineConnect=0;shape=mxgraph.rack.dell.poweredge_r940;fillColor=#ffe6cc;" parent="zFgZ9hsOf5gYY-8B4Prh-2" vertex="1">
          <mxGeometry x="33" y="561" width="168" height="60" as="geometry" />
        </mxCell>
        <mxCell id="zFgZ9hsOf5gYY-8B4Prh-24" value="&lt;h1&gt;30203&lt;/h1&gt;" style="text;html=1;strokeColor=none;fillColor=none;spacing=5;spacingTop=-20;whiteSpace=wrap;overflow=hidden;rounded=0;align=center;" parent="zFgZ9hsOf5gYY-8B4Prh-1" vertex="1">
          <mxGeometry x="340" y="60" width="190" height="40" as="geometry" />
        </mxCell>
        <mxCell id="zFgZ9hsOf5gYY-8B4Prh-25" value="June Buchanan Med Center - Primary" style="text;html=1;strokeColor=#6c8ebf;fillColor=#dae8fc;align=center;verticalAlign=middle;whiteSpace=wrap;rounded=0;" parent="zFgZ9hsOf5gYY-8B4Prh-1" vertex="1">
          <mxGeometry x="530" y="240" width="230" height="20" as="geometry" />
        </mxCell>
        <mxCell id="zFgZ9hsOf5gYY-8B4Prh-26" value="UK Owned KVM" style="text;html=1;strokeColor=#b85450;fillColor=#f8cecc;align=center;verticalAlign=middle;whiteSpace=wrap;rounded=0;" parent="zFgZ9hsOf5gYY-8B4Prh-1" vertex="1">
          <mxGeometry x="530" y="321" width="230" height="20" as="geometry" />
        </mxCell>
        <mxCell id="zFgZ9hsOf5gYY-8B4Prh-27" value="Test Server - Primary" style="text;html=1;strokeColor=#d6b656;fillColor=#fff2cc;align=center;verticalAlign=middle;whiteSpace=wrap;rounded=0;" parent="zFgZ9hsOf5gYY-8B4Prh-1" vertex="1">
          <mxGeometry x="530" y="380" width="230" height="20" as="geometry" />
        </mxCell>
        <mxCell id="zFgZ9hsOf5gYY-8B4Prh-28" value="Turfland Clinic Pharmacy - Primary" style="text;html=1;strokeColor=#9673a6;fillColor=#e1d5e7;align=center;verticalAlign=middle;whiteSpace=wrap;rounded=0;" parent="zFgZ9hsOf5gYY-8B4Prh-1" vertex="1">
          <mxGeometry x="530" y="441" width="230" height="19" as="geometry" />
        </mxCell>
        <mxCell id="zFgZ9hsOf5gYY-8B4Prh-29" value="Kentucky Clinic Pharmacy - Primary" style="text;html=1;strokeColor=#d79b00;fillColor=#ffe6cc;align=center;verticalAlign=middle;whiteSpace=wrap;rounded=0;" parent="zFgZ9hsOf5gYY-8B4Prh-1" vertex="1">
          <mxGeometry x="530" y="560" width="230" height="20" as="geometry" />
        </mxCell>
        <mxCell id="rYf7LyDpBaEIBFHa_25n-14" value="&lt;span style=&quot;background-color: rgb(168 , 168 , 168)&quot;&gt;UK PRDCAESERVER03&amp;nbsp;&lt;/span&gt;" style="text;html=1;strokeColor=#23445d;fillColor=#bac8d3;align=center;verticalAlign=middle;whiteSpace=wrap;rounded=0;" parent="zFgZ9hsOf5gYY-8B4Prh-1" vertex="1">
          <mxGeometry x="530" y="341" width="230" height="20" as="geometry" />
        </mxCell>
        <mxCell id="rYf7LyDpBaEIBFHa_25n-17" value="&lt;span style=&quot;background-color: rgb(166 , 166 , 166)&quot;&gt;UK PRDCAESERVER01&lt;/span&gt;" style="text;html=1;strokeColor=#23445d;fillColor=#bac8d3;align=center;verticalAlign=middle;whiteSpace=wrap;rounded=0;" parent="zFgZ9hsOf5gYY-8B4Prh-1" vertex="1">
          <mxGeometry x="530" y="421" width="230" height="20" as="geometry" />
        </mxCell>
        <mxCell id="jP5LZIC4KNixccppNWiR-0" value="June Buchanan Med Center - Secondary" style="text;html=1;strokeColor=#6c8ebf;fillColor=#dae8fc;align=center;verticalAlign=middle;whiteSpace=wrap;rounded=0;" vertex="1" parent="zFgZ9hsOf5gYY-8B4Prh-1">
          <mxGeometry x="530" y="260" width="230" height="20" as="geometry" />
        </mxCell>
        <mxCell id="jP5LZIC4KNixccppNWiR-2" value="June Buchanan Med Center - IVR" style="text;html=1;strokeColor=#6c8ebf;fillColor=#dae8fc;align=center;verticalAlign=middle;whiteSpace=wrap;rounded=0;" vertex="1" parent="zFgZ9hsOf5gYY-8B4Prh-1">
          <mxGeometry x="530" y="280" width="230" height="20" as="geometry" />
        </mxCell>
        <mxCell id="jP5LZIC4KNixccppNWiR-4" value="Test Server - Secondary" style="text;html=1;strokeColor=#d6b656;fillColor=#fff2cc;align=center;verticalAlign=middle;whiteSpace=wrap;rounded=0;" vertex="1" parent="zFgZ9hsOf5gYY-8B4Prh-1">
          <mxGeometry x="530" y="401" width="230" height="20" as="geometry" />
        </mxCell>
        <mxCell id="jP5LZIC4KNixccppNWiR-6" value="Turfland Clinic Pharmacy - Secondary" style="text;html=1;strokeColor=#9673a6;fillColor=#e1d5e7;align=center;verticalAlign=middle;whiteSpace=wrap;rounded=0;" vertex="1" parent="zFgZ9hsOf5gYY-8B4Prh-1">
          <mxGeometry x="530" y="460" width="230" height="19" as="geometry" />
        </mxCell>
        <mxCell id="jP5LZIC4KNixccppNWiR-8" value="Turfland Clinic Pharmacy - RAS" style="text;html=1;strokeColor=#9673a6;fillColor=#e1d5e7;align=center;verticalAlign=middle;whiteSpace=wrap;rounded=0;" vertex="1" parent="zFgZ9hsOf5gYY-8B4Prh-1">
          <mxGeometry x="530" y="479" width="230" height="19" as="geometry" />
        </mxCell>
        <mxCell id="jP5LZIC4KNixccppNWiR-10" value="Turfland Clinic Pharmacy - IVR" style="text;html=1;strokeColor=#9673a6;fillColor=#e1d5e7;align=center;verticalAlign=middle;whiteSpace=wrap;rounded=0;" vertex="1" parent="zFgZ9hsOf5gYY-8B4Prh-1">
          <mxGeometry x="530" y="498" width="230" height="52" as="geometry" />
        </mxCell>
        <mxCell id="jP5LZIC4KNixccppNWiR-12" value="Kentucky Clinic Pharmacy - Secondary" style="text;html=1;strokeColor=#d79b00;fillColor=#ffe6cc;align=center;verticalAlign=middle;whiteSpace=wrap;rounded=0;" vertex="1" parent="zFgZ9hsOf5gYY-8B4Prh-1">
          <mxGeometry x="530" y="580" width="230" height="20" as="geometry" />
        </mxCell>
        <mxCell id="jP5LZIC4KNixccppNWiR-14" value="Kentucky Clinic Pharmacy - RAS" style="text;html=1;strokeColor=#d79b00;fillColor=#ffe6cc;align=center;verticalAlign=middle;whiteSpace=wrap;rounded=0;" vertex="1" parent="zFgZ9hsOf5gYY-8B4Prh-1">
          <mxGeometry x="530" y="610" width="230" height="50" as="geometry" />
        </mxCell>
        <mxCell id="jP5LZIC4KNixccppNWiR-16" value="Kentucky Clinic Pharmacy - IVR" style="text;html=1;strokeColor=#d79b00;fillColor=#ffe6cc;align=center;verticalAlign=middle;whiteSpace=wrap;rounded=0;" vertex="1" parent="zFgZ9hsOf5gYY-8B4Prh-1">
          <mxGeometry x="530" y="660" width="230" height="50" as="geometry" />
        </mxCell>
        <mxCell id="3_VGNYpzgW5nRB_Ncr7y-1" value="UK PRDCAESERVER02" style="text;html=1;strokeColor=#23445d;fillColor=#bac8d3;align=center;verticalAlign=middle;whiteSpace=wrap;rounded=0;" vertex="1" parent="zFgZ9hsOf5gYY-8B4Prh-1">
          <mxGeometry x="530" y="361" width="230" height="20" as="geometry" />
        </mxCell>
      </root>
    </mxGraphModel>
  </diagram>
  <diagram id="Dy6RVbHSKpE1cAdaL4Ac" name="Page-3">
    <mxGraphModel dx="1422" dy="705" grid="1" gridSize="10" guides="1" tooltips="1" connect="1" arrows="1" fold="1" page="1" pageScale="1" pageWidth="850" pageHeight="1100" math="0" shadow="0">
      <root>
        <mxCell id="BOpnfCzleWNU9nd95-tT-0" />
        <mxCell id="BOpnfCzleWNU9nd95-tT-1" parent="BOpnfCzleWNU9nd95-tT-0" />
        <mxCell id="BOpnfCzleWNU9nd95-tT-2" value="" style="html=1;verticalLabelPosition=bottom;labelBackgroundColor=#ffffff;verticalAlign=top;outlineConnect=0;shadow=0;dashed=0;shape=mxgraph.rackGeneral.container;fillColor2=#f4f4f4;container=1;collapsible=0;childLayout=rack;allowGaps=1;marginLeft=33;marginRight=9;marginTop=21;marginBottom=22;textColor=#666666;numDisp=ascend;" vertex="1" parent="BOpnfCzleWNU9nd95-tT-1">
          <mxGeometry x="130" y="70" width="210" height="890" as="geometry" />
        </mxCell>
        <mxCell id="BOpnfCzleWNU9nd95-tT-6" value="" style="html=1;verticalLabelPosition=bottom;verticalAlign=top;outlineConnect=0;shadow=0;dashed=0;shape=mxgraph.rack.hpe_aruba.switches.j9775a_2530_48g_switch;" vertex="1" parent="BOpnfCzleWNU9nd95-tT-2">
          <mxGeometry x="33" y="21" width="168" height="20" as="geometry" />
        </mxCell>
        <mxCell id="BOpnfCzleWNU9nd95-tT-5" value="" style="html=1;verticalLabelPosition=bottom;verticalAlign=top;outlineConnect=0;shadow=0;dashed=0;shape=mxgraph.rack.hpe_aruba.switches.j9775a_2530_48g_switch;" vertex="1" parent="BOpnfCzleWNU9nd95-tT-2">
          <mxGeometry x="33" y="41" width="168" height="20" as="geometry" />
        </mxCell>
        <mxCell id="BOpnfCzleWNU9nd95-tT-12" value="" style="image;html=1;image=img/lib/clip_art/computers/Monitor_128x128.png" vertex="1" parent="BOpnfCzleWNU9nd95-tT-2">
          <mxGeometry x="33" y="61" width="168" height="80" as="geometry" />
        </mxCell>
        <mxCell id="BOpnfCzleWNU9nd95-tT-7" value="" style="strokeColor=#6c8ebf;html=1;labelPosition=right;align=left;spacingLeft=15;shadow=0;dashed=0;outlineConnect=0;shape=mxgraph.rack.dell.poweredge_c4140;direction=west;fillColor=#dae8fc;" vertex="1" parent="BOpnfCzleWNU9nd95-tT-2">
          <mxGeometry x="33" y="141" width="168" height="20" as="geometry" />
        </mxCell>
        <mxCell id="BOpnfCzleWNU9nd95-tT-9" value="" style="strokeColor=#6c8ebf;html=1;labelPosition=right;align=left;spacingLeft=15;shadow=0;dashed=0;outlineConnect=0;shape=mxgraph.rack.dell.poweredge_c4140;direction=west;fillColor=#dae8fc;" vertex="1" parent="BOpnfCzleWNU9nd95-tT-2">
          <mxGeometry x="33" y="161" width="168" height="20" as="geometry" />
        </mxCell>
        <mxCell id="BOpnfCzleWNU9nd95-tT-8" value="" style="strokeColor=#d6b656;html=1;labelPosition=right;align=left;spacingLeft=15;shadow=0;dashed=0;outlineConnect=0;shape=mxgraph.rack.dell.poweredge_c4140;direction=west;fillColor=#fff2cc;" vertex="1" parent="BOpnfCzleWNU9nd95-tT-2">
          <mxGeometry x="33" y="181" width="168" height="20" as="geometry" />
        </mxCell>
        <mxCell id="BOpnfCzleWNU9nd95-tT-13" value="" style="strokeColor=#b85450;html=1;labelPosition=right;align=left;spacingLeft=15;shadow=0;dashed=0;outlineConnect=0;shape=mxgraph.rack.dell.poweredge_r740;fillColor=#f8cecc;" vertex="1" parent="BOpnfCzleWNU9nd95-tT-2">
          <mxGeometry x="33" y="201" width="168" height="60" as="geometry" />
        </mxCell>
        <mxCell id="BOpnfCzleWNU9nd95-tT-15" value="" style="strokeColor=#b85450;html=1;labelPosition=right;align=left;spacingLeft=15;shadow=0;dashed=0;outlineConnect=0;shape=mxgraph.rack.dell.poweredge_r740;fillColor=#f8cecc;" vertex="1" parent="BOpnfCzleWNU9nd95-tT-2">
          <mxGeometry x="33" y="261" width="168" height="60" as="geometry" />
        </mxCell>
        <mxCell id="BOpnfCzleWNU9nd95-tT-14" value="" style="strokeColor=#b85450;html=1;labelPosition=right;align=left;spacingLeft=15;shadow=0;dashed=0;outlineConnect=0;shape=mxgraph.rack.dell.poweredge_r740;fillColor=#f8cecc;" vertex="1" parent="BOpnfCzleWNU9nd95-tT-2">
          <mxGeometry x="33" y="321" width="168" height="120" as="geometry" />
        </mxCell>
        <mxCell id="BOpnfCzleWNU9nd95-tT-17" value="" style="strokeColor=#b85450;html=1;labelPosition=right;align=left;spacingLeft=15;shadow=0;dashed=0;outlineConnect=0;shape=mxgraph.rack.dell.dell_poweredge_1u;fillColor=#f8cecc;" vertex="1" parent="BOpnfCzleWNU9nd95-tT-2">
          <mxGeometry x="33" y="441" width="168" height="20" as="geometry" />
        </mxCell>
        <mxCell id="BOpnfCzleWNU9nd95-tT-16" value="" style="strokeColor=#b85450;html=1;labelPosition=right;align=left;spacingLeft=15;shadow=0;dashed=0;outlineConnect=0;shape=mxgraph.rack.dell.dell_poweredge_1u;fillColor=#f8cecc;" vertex="1" parent="BOpnfCzleWNU9nd95-tT-2">
          <mxGeometry x="33" y="461" width="168" height="20" as="geometry" />
        </mxCell>
        <mxCell id="BOpnfCzleWNU9nd95-tT-19" value="" style="shape=mxgraph.rack.oracle.sun_blade_6000_enclosure;html=1;labelPosition=right;align=left;spacingLeft=15;dashed=0;shadow=0;fillColor=#f8cecc;strokeColor=#b85450;" vertex="1" parent="BOpnfCzleWNU9nd95-tT-2">
          <mxGeometry x="33" y="481" width="168" height="200" as="geometry" />
        </mxCell>
        <mxCell id="Yr7e3O5EnjN_NyVH1Wp0-0" value="Cisco" style="text;html=1;strokeColor=#9673a6;fillColor=#e1d5e7;align=center;verticalAlign=middle;whiteSpace=wrap;rounded=0;" vertex="1" parent="BOpnfCzleWNU9nd95-tT-1">
          <mxGeometry x="340" y="90" width="220" height="20" as="geometry" />
        </mxCell>
        <mxCell id="Yr7e3O5EnjN_NyVH1Wp0-1" value="Cisco" style="text;html=1;strokeColor=#9673a6;fillColor=#e1d5e7;align=center;verticalAlign=middle;whiteSpace=wrap;rounded=0;" vertex="1" parent="BOpnfCzleWNU9nd95-tT-1">
          <mxGeometry x="340" y="110" width="220" height="20" as="geometry" />
        </mxCell>
        <mxCell id="Yr7e3O5EnjN_NyVH1Wp0-3" value="UNKYSPEC02" style="text;html=1;strokeColor=#6c8ebf;fillColor=#dae8fc;align=center;verticalAlign=middle;whiteSpace=wrap;rounded=0;" vertex="1" parent="BOpnfCzleWNU9nd95-tT-1">
          <mxGeometry x="340" y="210" width="220" height="20" as="geometry" />
        </mxCell>
        <mxCell id="Yr7e3O5EnjN_NyVH1Wp0-4" value="UNKYSPEC01" style="text;html=1;strokeColor=#6c8ebf;fillColor=#dae8fc;align=center;verticalAlign=middle;whiteSpace=wrap;rounded=0;" vertex="1" parent="BOpnfCzleWNU9nd95-tT-1">
          <mxGeometry x="340" y="230" width="220" height="20" as="geometry" />
        </mxCell>
        <mxCell id="Yr7e3O5EnjN_NyVH1Wp0-6" value="Chandler - SPCTERM2-2" style="text;html=1;strokeColor=#d6b656;fillColor=#fff2cc;align=center;verticalAlign=middle;whiteSpace=wrap;rounded=0;" vertex="1" parent="BOpnfCzleWNU9nd95-tT-1">
          <mxGeometry x="340" y="250" width="220" height="20" as="geometry" />
        </mxCell>
        <mxCell id="Yr7e3O5EnjN_NyVH1Wp0-7" value="UK Servers" style="text;html=1;strokeColor=#b85450;fillColor=#f8cecc;align=center;verticalAlign=middle;whiteSpace=wrap;rounded=0;" vertex="1" parent="BOpnfCzleWNU9nd95-tT-1">
          <mxGeometry x="340" y="300" width="100" height="140" as="geometry" />
        </mxCell>
        <mxCell id="Yr7e3O5EnjN_NyVH1Wp0-8" value="UK Blade Server" style="text;html=1;strokeColor=#b85450;fillColor=#f8cecc;align=center;verticalAlign=middle;whiteSpace=wrap;rounded=0;" vertex="1" parent="BOpnfCzleWNU9nd95-tT-1">
          <mxGeometry x="340" y="560" width="100" height="110" as="geometry" />
        </mxCell>
      </root>
    </mxGraphModel>
  </diagram>
  <diagram id="_2JQbGipPX7O8aiTBqCy" name="Page-4">
    <mxGraphModel dx="1422" dy="705" grid="1" gridSize="10" guides="1" tooltips="1" connect="1" arrows="1" fold="1" page="1" pageScale="1" pageWidth="850" pageHeight="1100" math="0" shadow="0">
      <root>
        <mxCell id="MpjO207sgOUtt9waYIvd-0" />
        <mxCell id="MpjO207sgOUtt9waYIvd-1" parent="MpjO207sgOUtt9waYIvd-0" />
      </root>
    </mxGraphModel>
  </diagram>
</mxfile>
